# xmcd
#
# Track frame offsets: 
#        150
#        28815
#        89507
#        109000
#        136122
#        165647
#        187774
#        204599
#
# Disc length: 3618 seconds
#
# Revision: 1
# Processed by: cddbd v1.5.2PL0 Copyright (c) Steve Scherf et al.
# Submitted via: ExactAudioCopy v1.0b1
#
DISCID=620e2008
DTITLE=Ron Miles - Blossom
DYEAR=2006
DGENRE=Jazz
TTITLE0=Since Forever
TTITLE1=Small Town Hero
TTITLE2=Gethsemane
TTITLE3=I Woke Up In Love This Morning
TTITLE4=I'll Be There
TTITLE5=Illuminator
TTITLE6=If I Don't Get To Heaven
TTITLE7=Sleepyhead
EXTD=YEAR: 2006
EXTT0=
EXTT1=
EXTT2=
EXTT3=
EXTT4=
EXTT5=
EXTT6=
EXTT7=
PLAYORDER=
